<svg width="92" height="29" viewBox="0 0 92 29" fill="none" xmlns="http://www.w3.org/2000/svg">
<path d="M0.998218 28.0482V21.7226H3.44095C4.69878 21.7226 5.55556 22.4245 5.55556 23.582C5.55556 24.849 4.63498 25.4961 3.39538 25.4961H1.94614V28.0482H0.998218ZM1.94614 22.4974V24.7214H3.33158C4.1519 24.7214 4.5894 24.3294 4.5894 23.6094C4.5894 22.862 4.07898 22.4974 3.36803 22.4974H1.94614ZM13.9819 25.3138H12.7605V28.0482H11.8308V21.7226H14.3647C15.6772 21.7226 16.3881 22.4336 16.3881 23.4271C16.3881 24.2474 15.9142 24.7396 15.3308 24.9128C15.8139 25.0495 16.2696 25.4232 16.2696 26.5261V26.8086C16.2696 27.2461 16.2514 27.7839 16.3517 28.0482H15.4493C15.3308 27.7748 15.3308 27.2917 15.3308 26.681V26.5534C15.3308 25.6875 15.0939 25.3138 13.9819 25.3138ZM12.7605 22.4974V24.5299H14.0912C15.0209 24.5299 15.422 24.1836 15.422 23.5091C15.422 22.862 15.0027 22.4974 14.1733 22.4974H12.7605ZM25.5296 21.6315C27.3252 21.6315 28.4463 22.9622 28.4463 24.8581C28.4463 26.599 27.4619 28.1394 25.4476 28.1394C23.5699 28.1394 22.5217 26.6992 22.5217 24.8854C22.5217 23.0716 23.6064 21.6315 25.5296 21.6315ZM25.4931 22.4245C24.1077 22.4245 23.5061 23.5273 23.5061 24.8581C23.5061 26.207 24.1715 27.3555 25.4931 27.3555C26.915 27.3555 27.471 26.1797 27.471 24.8672C27.471 23.5364 26.8421 22.4245 25.4931 22.4245ZM36.0095 28.0482V22.5156H33.986V21.7226H38.9717V22.5156H36.9483V28.0482H36.0095ZM47.4796 21.6315C49.2752 21.6315 50.3963 22.9622 50.3963 24.8581C50.3963 26.599 49.4119 28.1394 47.3975 28.1394C45.5199 28.1394 44.4717 26.6992 44.4717 24.8854C44.4717 23.0716 45.5564 21.6315 47.4796 21.6315ZM47.4431 22.4245C46.0577 22.4245 45.4561 23.5273 45.4561 24.8581C45.4561 26.207 46.1215 27.3555 47.4431 27.3555C48.865 27.3555 49.421 26.1797 49.421 24.8672C49.421 23.5364 48.7921 22.4245 47.4431 22.4245ZM60.9548 26.2253H61.9027C61.6293 27.319 60.8089 28.1302 59.3415 28.1302C57.4274 28.1302 56.4704 26.6992 56.4704 24.9128C56.4704 23.1901 57.4365 21.6315 59.3779 21.6315C60.9092 21.6315 61.7204 22.5065 61.9027 23.5638H60.9639C60.7543 22.9166 60.3167 22.3971 59.3415 22.3971C58.0016 22.3971 57.4547 23.6185 57.4547 24.8763C57.4547 26.0886 57.9652 27.3646 59.3779 27.3646C60.3441 27.3646 60.7451 26.7995 60.9548 26.2253ZM70.9428 21.6315C72.7383 21.6315 73.8595 22.9622 73.8595 24.8581C73.8595 26.599 72.8751 28.1394 70.8607 28.1394C68.9831 28.1394 67.9349 26.6992 67.9349 24.8854C67.9349 23.0716 69.0196 21.6315 70.9428 21.6315ZM70.9063 22.4245C69.5209 22.4245 68.9193 23.5273 68.9193 24.8581C68.9193 26.207 69.5847 27.3555 70.9063 27.3555C72.3282 27.3555 72.8842 26.1797 72.8842 24.8672C72.8842 23.5364 72.2553 22.4245 70.9063 22.4245ZM80.2799 28.0482V21.7226H81.2187V27.2552H84.5L84.3724 28.0482H80.2799Z" fill="#F0ECE9"/>
<g filter="url(#filter0_i_707_856)">
<path d="M44.2441 0.12962C38.5538 0.12962 33.9355 4.74784 33.9355 10.4382C33.9355 16.1285 38.5538 20.7467 44.2441 20.7467C49.9344 20.7467 54.5526 16.1285 54.5526 10.4382C54.5526 4.74784 49.9344 0.12962 44.2441 0.12962ZM51.3364 10.7327L47.8491 11.9344C47.3013 12.1229 46.8595 12.5352 46.6298 13.0654L45.8051 14.9739C45.6991 15.2213 45.3515 15.2213 45.2396 14.9739L44.4738 13.2067C44.2087 12.5941 43.6668 12.1464 43.0247 12.0109L37.1813 10.7445C36.8573 10.6738 36.8573 10.2084 37.1813 10.1377L43.0247 8.87126C43.6727 8.72988 44.2087 8.28809 44.4738 7.67547L45.2396 5.90829C45.3456 5.66088 45.6932 5.66088 45.8051 5.90829L46.6298 7.81684C46.8595 8.35288 47.3013 8.75933 47.8491 8.94783L51.3364 10.1495C51.6132 10.2438 51.6132 10.6443 51.3364 10.7386V10.7327Z" fill="url(#paint0_linear_707_856)"/>
</g>
<path d="M30.1304 2.64489H18.467C18.3433 2.64489 18.2314 2.72147 18.1901 2.83928L16.1756 8.59439C16.1343 8.71809 16.0165 8.79467 15.8869 8.79467C15.7573 8.79467 15.6454 8.7122 15.5983 8.59439L13.5837 2.83928C13.5425 2.72147 13.4305 2.64489 13.3068 2.64489H0.836464C0.371107 2.64489 0 3.02189 0 3.48136V18.0076C0 18.4729 0.376998 18.844 0.836464 18.844H7.76969C8.23505 18.844 8.60615 18.467 8.60615 18.0076V10.5442C8.60615 10.4028 8.71807 10.2909 8.85945 10.2909C8.96548 10.2909 9.05973 10.3557 9.09507 10.4558L12.0345 18.0959C12.2112 18.5495 12.6471 18.8499 13.136 18.8499H18.2785C18.7674 18.8499 19.2033 18.5495 19.38 18.0959L22.3195 10.4558C22.3548 10.3557 22.449 10.2909 22.5551 10.2909C22.6964 10.2909 22.8084 10.4028 22.8084 10.5442V18.0311C22.8084 18.4788 23.1736 18.844 23.6213 18.844H30.1245C30.5427 18.844 30.8844 18.5024 30.8844 18.0841C30.8844 17.9545 30.8431 17.8426 30.7901 17.7366H30.8019C29.7239 15.6336 29.1113 13.2597 29.1113 10.7386C29.1113 8.21739 29.7239 5.84937 30.796 3.75821H30.7842C30.8431 3.64629 30.8844 3.52848 30.8844 3.39889C30.8844 2.98066 30.5427 2.639 30.1245 2.639L30.1304 2.64489Z" fill="#F0ECE9"/>
<path d="M82.4913 2.6449H75.2753C74.8571 2.6449 74.5213 2.98066 74.5213 3.39889V7.78149C74.5213 8.023 74.3269 8.21739 74.0854 8.21739C73.9263 8.21739 73.7732 8.1526 73.6554 8.04657L68.7367 3.32231C68.289 2.8923 67.6882 2.65079 67.0697 2.65079H58.7934C58.7934 2.65079 58.7816 2.65079 58.7757 2.65079C58.3575 2.65079 58.0159 2.99244 58.0159 3.41067C58.0159 3.51081 58.0394 3.60506 58.0748 3.69342H58.0689C59.1233 5.77869 59.7241 8.12903 59.7241 10.6208C59.7241 13.1125 59.0762 15.6454 57.9452 17.7778H57.9569C57.9098 17.878 57.8804 17.984 57.8804 18.0959C57.8804 18.5141 58.222 18.8558 58.6403 18.8558H65.656C66.0506 18.8558 66.3746 18.5377 66.3746 18.1371V14.002C66.3746 13.7604 66.569 13.5602 66.8164 13.5602C66.9754 13.5602 67.1227 13.6191 67.2405 13.7251L72.1592 18.2137C72.6068 18.6261 73.1959 18.8499 73.8026 18.8499H82.4972C82.9625 18.8499 83.3336 18.4729 83.3336 18.0134V3.48136C83.3336 3.016 82.9566 2.6449 82.4972 2.6449H82.4913Z" fill="#F0ECE9"/>
<path d="M87.3746 5.16784V3.39653H86.7322V3.02714H88.465V3.39653H87.8226V5.16784H87.3746ZM88.8255 5.16784V3.02714H89.3388L89.9307 4.59372H89.9574L90.5478 3.02714H91.0611V5.16784H90.6621V3.71104H90.6324L90.0835 5.16784H89.8031L89.2542 3.71104H89.2245V5.16784H88.8255Z" fill="white"/>
<defs>
<filter id="filter0_i_707_856" x="33.9355" y="0.12962" width="21.6426" height="22.6679" filterUnits="userSpaceOnUse" color-interpolation-filters="sRGB">
<feFlood flood-opacity="0" result="BackgroundImageFix"/>
<feBlend mode="normal" in="SourceGraphic" in2="BackgroundImageFix" result="shape"/>
<feColorMatrix in="SourceAlpha" type="matrix" values="0 0 0 0 0 0 0 0 0 0 0 0 0 0 0 0 0 0 127 0" result="hardAlpha"/>
<feOffset dx="1.0254" dy="2.0508"/>
<feGaussianBlur stdDeviation="1.74318"/>
<feComposite in2="hardAlpha" operator="arithmetic" k2="-1" k3="1"/>
<feColorMatrix type="matrix" values="0 0 0 0 1 0 0 0 0 1 0 0 0 0 1 0 0 0 0.84 0"/>
<feBlend mode="normal" in2="shape" result="effect1_innerShadow_707_856"/>
</filter>
<linearGradient id="paint0_linear_707_856" x1="38.8778" y1="3.66397" x2="50.3644" y2="20.7467" gradientUnits="userSpaceOnUse">
<stop stop-color="#F0ECE9" stop-opacity="0.38"/>
<stop offset="1" stop-color="#F0ECE9"/>
</linearGradient>
</defs>
</svg>
